<svg width="20" height="19" viewBox="0 0 20 19" fill="none" xmlns="http://www.w3.org/2000/svg">
<path d="M5.28125 16.1953C3.84375 16.1953 3.16406 15.5156 3.16406 14.0781V12.4062C3.16406 12.2578 3.125 12.1484 3.01562 12.0391L1.83594 10.8516C0.820312 9.83594 0.8125 8.88281 1.83594 7.86719L3.01562 6.67969C3.125 6.57031 3.16406 6.46094 3.16406 6.3125V4.64062C3.16406 3.1875 3.83594 2.52344 5.28125 2.52344H6.95312C7.10156 2.52344 7.21094 2.47656 7.32031 2.375L8.50781 1.19531C9.52344 0.171875 10.4766 0.164062 11.4922 1.1875L12.6797 2.375C12.7891 2.48438 12.8984 2.52344 13.0547 2.52344H14.7266C16.1641 2.52344 16.8359 3.20312 16.8359 4.64062V6.3125C16.8359 6.46094 16.875 6.5625 16.9922 6.67969L18.1719 7.86719C19.1875 8.88281 19.1953 9.83594 18.1719 10.8516L16.9922 12.0391C16.8828 12.1484 16.8359 12.2578 16.8359 12.4062V14.0781C16.8359 15.5156 16.1562 16.1953 14.7266 16.1953H13.0547C12.8984 16.1953 12.7969 16.2344 12.6797 16.3438L11.4922 17.5234C10.4766 18.5391 9.52344 18.5469 8.50781 17.5234L7.32031 16.3438C7.21094 16.2344 7.10156 16.1953 6.95312 16.1953H5.28125ZM9.13281 13.2109C9.42969 13.2109 9.67969 13.0703 9.85156 12.7969L13.5156 7.10156C13.625 6.92969 13.7188 6.73438 13.7188 6.55469C13.7188 6.14062 13.3594 5.86719 12.9688 5.86719C12.7266 5.86719 12.5078 6.00781 12.3359 6.28125L9.10938 11.4453L7.60156 9.53906C7.39844 9.28125 7.21094 9.19531 6.96875 9.19531C6.57031 9.19531 6.25 9.51562 6.25 9.91406C6.25 10.1172 6.32031 10.2969 6.46094 10.4766L8.375 12.8047C8.60156 13.0859 8.83594 13.2109 9.13281 13.2109Z" fill="#FF26D5" fill-opacity="0.5"/>
</svg>
