<svg width="14" height="17" viewBox="0 0 14 17" fill="none" xmlns="http://www.w3.org/2000/svg">
<path d="M6.75 16.25C6.625 16.25 6.4375 16.2109 6.23438 16.1016C1.86719 13.6406 0.359375 12.6094 0.359375 9.80469V3.91406C0.359375 3.10938 0.710938 2.84375 1.35938 2.57812C2.27344 2.21094 5.19531 1.125 6.10938 0.828125C6.3125 0.765625 6.53125 0.71875 6.75 0.71875C6.96875 0.71875 7.1875 0.757812 7.39844 0.828125C8.30469 1.14062 11.2266 2.20312 12.1406 2.57812C12.7969 2.85156 13.1406 3.10938 13.1406 3.91406V9.80469C13.1406 12.6094 11.7109 13.7734 7.26562 16.1016C7.07031 16.2031 6.875 16.25 6.75 16.25Z" fill="white"/>
</svg>
