<svg width="18" height="18" viewBox="0 0 18 18" fill="none" xmlns="http://www.w3.org/2000/svg">
<path d="M7.25 7.14844C5.57812 7.14844 4.125 5.64844 4.125 3.71094C4.125 1.79688 5.57812 0.335938 7.25 0.335938C8.92188 0.335938 10.375 1.76562 10.375 3.69531C10.375 5.64844 8.92969 7.14844 7.25 7.14844ZM2.00781 14.3828C1.17188 14.3828 0.671875 13.9922 0.671875 13.3438C0.671875 11.3281 3.19531 8.54688 7.25 8.54688C8.39844 8.54688 9.42969 8.78906 10.2891 9.16406C9.57812 9.5625 9.10938 10.125 9.10938 11.0156V13.8047C9.10938 14.0078 9.125 14.2031 9.14844 14.3828H2.00781ZM10.4141 13.8281V11.0156C10.4141 10.5625 10.5938 10.2656 11.0547 10.0703C11.5078 9.88281 12.9531 9.38281 13.3359 9.24219C13.625 9.125 13.9141 9.125 14.1719 9.21094C14.6172 9.36719 16.0625 9.88281 16.5234 10.0703C16.9844 10.2656 17.1562 10.5625 17.1562 11.0156V13.8281C17.1562 15.3281 16.2734 15.8672 14.1484 17.1172C13.9062 17.2578 13.6094 17.2266 13.4219 17.1172C11.2969 15.8672 10.4141 15.3281 10.4141 13.8281ZM13.7891 13.8594C14.0625 13.8594 14.2578 13.6719 14.2656 13.3984L14.3281 11.1719C14.3359 10.8516 14.1172 10.6328 13.7891 10.6328C13.4609 10.6328 13.25 10.8516 13.2578 11.1719L13.3203 13.3984C13.3281 13.6719 13.5156 13.8594 13.7891 13.8594ZM13.7891 15.7188C14.1562 15.7188 14.4453 15.4219 14.4531 15.0547C14.4531 14.7031 14.1562 14.3984 13.7891 14.3984C13.4297 14.3984 13.1328 14.7031 13.1328 15.0547C13.1328 15.4219 13.4297 15.7188 13.7891 15.7188Z" fill="white"/>
</svg>
